<?xml version="1.0" encoding="utf-8"?>
<!-- Generator: Adobe Illustrator 25.0.1, SVG Export Plug-In . SVG Version: 6.00 Build 0)  -->
<svg version="1.1" id="图层_1" xmlns="http://www.w3.org/2000/svg" xmlns:xlink="http://www.w3.org/1999/xlink" x="0px" y="0px"
	 viewBox="0 0 3321.5 1876.5" style="enable-background:new 0 0 3321.5 1876.5;" xml:space="preserve">
<title>emojiall.com</title>
<style type="text/css">
	.st0{fill: #3f4257;}
	.st1{fill: #fc5e3a;}
	.st2{fill: #50546f;}
	.st3{fill: #fc5e3a;}
	.st4{fill:#92B5F9;}
	.st5{fill:#FFCA28;}
	.st6{fill:#FB9390;}
	.st7{fill:#0B0754;}
	.st8{fill: #dc5637;}
	.st9{fill:#4951EC;}
	.st10{fill:#7C9AF2;}
	.st11{fill:#EF7F7F;}
	.st12{fill:#F7A491;}
	.st13{fill:#BED1F9;}
	.st14{fill:#FFFFFF;}
	.st15{fill:#DDE8FE;}
</style>
<g id="layer_2">
	<path id="w45va" class="st0" d="M-665.7,1990.5V-171h9576.9v2161.4H-665.7V1990.5z"/>
	<g>
		<g>
			<g>
				<path id="w45ve" class="st1" d="M4422-703c-33.8,158.3-104.5,323.5-208.6,447.8C4112.6-134.8,3964-32,3810.9,0.1
				c-177,37-359.1,12-532.8-27.9c-202.5-46.6-481.8-23.7-681.6,104.4c-191.7,122.7-318.1,289.4-466.1,459
				c-215.5,246.7-490.1,458.9-834.7,433.6c-273.2-20-504.6-186.3-661.7-403.5c-99.3-137.4-171.7-293.2-225.4-453.6
				C204.8-496,301.8-697.4,301.8-697.4L4422-703L4422-703z">
					<animate attributeName="d" dur="20s" values="
					M4422-703c-33.8,158.3-104.5,323.5-208.6,447.8C4112.6-134.8,3964-32,3810.9,0.1
					c-177,37-359.1,12-532.8-27.9c-202.5-46.6-481.8-23.7-681.6,104.4c-191.7,122.7-318.1,289.4-466.1,459
					c-215.5,246.7-490.1,458.9-834.7,433.6c-273.2-20-504.6-186.3-661.7-403.5c-99.3-137.4-171.7-293.2-225.4-453.6
					C204.8-496,301.8-697.4,301.8-697.4L4422-703L4422-703z;
					M4422-703c-33.8,158.3-104.5,323.5-208.6,447.8c-100.8,120.4-114.2,472.3-267.3,504.4      c-177,37-511.7-0.5-685.4-40.4C3058.2,162.1,3072.8,398,2873,526.2c-191.7,122.7-679.6-188.1-827.6-18.5      c-215.5,246.7-138.5,786.4-483.1,761.1c-273.2-20-771.2-485.9-928.3-703.1c-99.3-137.4-171.7-293.2-225.4-453.6      C204.8-496,301.8-697.4,301.8-697.4L4422-703L4422-703z;
					M4422-703c-33.8,158.3-104.5,323.5-208.6,447.8C4112.6-134.8,3964-32,3810.9,0.1
					c-177,37-359.1,12-532.8-27.9c-202.5-46.6-481.8-23.7-681.6,104.4c-191.7,122.7-318.1,289.4-466.1,459
					c-215.5,246.7-490.1,458.9-834.7,433.6c-273.2-20-504.6-186.3-661.7-403.5c-99.3-137.4-171.7-293.2-225.4-453.6
					C204.8-496,301.8-697.4,301.8-697.4L4422-703L4422-703z;" repeatCount="indefinite"></animate>
				</path>
				<g>
					<path id="w45vj" class="st2" d="M-554.2-889.3c112.1-12.9,393.6,14.6,625.4,151.4S417-304.5,406.7-93.7
					c-10.4,210.8,59,375.4,201.6,448c142.7,72.7,232.3,22.4,380.3,4.1c148-18.4,513,82.8,566.9,405.7
					c53.9,323-225.5,628.5-412.9,724.3c-187.5,95.6-291.2,228.8-167.1,370.4c64.2,73.3,291.2,256.2,175.7,432
					c-553,842.2-2215.1-62.8-2504.1-1176.5C-1614.1,108.1-1161.8-818-554.2-889.3">
						<animate attributeName="d" dur="16s" values="
							M-554.2-889.3c112.1-12.9,393.6,14.6,625.4,151.4S417-304.5,406.7-93.7
							c-10.4,210.8,59,375.4,201.6,448c142.7,72.7,232.3,22.4,380.3,4.1c148-18.4,513,82.8,566.9,405.7
							c53.9,323-225.5,628.5-412.9,724.3c-187.5,95.6-291.2,228.8-167.1,370.4c64.2,73.3,291.2,256.2,175.7,432
							c-553,842.2-2215.1-62.8-2504.1-1176.5C-1614.1,108.1-1161.8-818-554.2-889.3;
							M-554.2-889.3c112.1-12.9,393.6,14.6,625.4,151.4S918.3-381.8,908-171       C897.6,39.8,456.4,210.7,599,283.3c142.7,72.7,327.6-106.8,475.6-125.1c148-18.4,416.6-103.4,470.5,219.5       c53.9,323-546,1109.5-733.4,1205.3c-187.5,95.6-272.5,525.4-148.4,667c64.2,73.3,263.9,333.5,148.4,509.3       c-553,842.2-1875.6-531.3-2164.6-1645C-1614.1,108.1-1161.8-818-554.2-889.3;
							M-554.2-889.3c112.1-12.9,393.6,14.6,625.4,151.4S417-304.5,406.7-93.7
							c-10.4,210.8,59,375.4,201.6,448c142.7,72.7,232.3,22.4,380.3,4.1c148-18.4,513,82.8,566.9,405.7
							c53.9,323-225.5,628.5-412.9,724.3c-187.5,95.6-291.2,228.8-167.1,370.4c64.2,73.3,291.2,256.2,175.7,432
							c-553,842.2-2215.1-62.8-2504.1-1176.5C-1614.1,108.1-1161.8-818-554.2-889.3;" repeatCount="indefinite"></animate>
					</path>
				</g>
			</g>
		</g>
	</g>
</g>
<g id="Layer_1">
	<path class="st3" d="M894.2,905.6l-5.7-17.7l-17.8-5.3c-2.1-0.6-2.5-3.3-0.8-4.5l15.1-10.9l-0.4-18.6c0-2.1,2.4-3.3,4.1-2.1l15,11
		l17.6-6.2c2-0.7,4,1.2,3.3,3.2l-5.8,17.7l11.3,14.8c1.3,1.7,0.1,4.1-2,4.1h-18.6l-10.6,15.3C897.7,908.1,895,907.7,894.2,905.6z"/>
	<path class="st4" d="M408,569.2c1.1,2.6-1.2,5.3-4,4.5l-24-6L361.4,584c-2.1,1.9-5.4,0.5-5.6-2.3l-1.7-24.7l-21.3-12.6
		c-2.4-1.5-2.1-5,0.5-6.1l23-9.2l5.4-24.1c0.6-2.7,4.1-3.6,5.9-1.4l15.9,19l24.6-2.3c2.8-0.3,4.7,2.8,3.2,5.2l-13.1,21L408,569.2
		L408,569.2z"/>
	<path class="st5" d="M1055.8,1133.7c-1.4,2.7-5.4,2.7-6.5-0.3l-11.5-24.6l-26.8-4.5c-3-0.5-4.2-4.3-1.9-6.4l19.9-18.5l-4-26.9
		c-0.5-3.1,2.8-5.3,5.5-3.8l23.7,13.2l24.3-12.1c2.7-1.3,5.9,1.1,5.3,4.1l-5.2,26.7l19,19.4c2.2,2.2,0.9,5.9-2.2,6.3l-27,3.3
		L1055.8,1133.7L1055.8,1133.7z M242.7,615.4l-0.4,19.8l21.9,2.9l1.9,18.3l20.6,6.3l2.4-7.8l-15.4-4.7l-2-19.3l-21.1-2.9l0.3-13.1
		L242.7,615.4z"/>
	<path class="st3" d="M600.8,480.2c1.2-8.6,9.4-14.9,18-13.7c9,1.3,14.2,8.5,13.3,17.6c-1,9.1-7.9,15.3-17.4,14.2
		C605.2,497.3,599.6,489.5,600.8,480.2L600.8,480.2z M609.3,456.5l4.2-69.3c0.3-5.7,5.4-10,11.1-9.4l6.9,0.8
		c5.7,0.6,9.7,5.9,8.8,11.6l-11.1,68.6L609.3,456.5L609.3,456.5z"/>
	<path class="st6" d="M388.3,1267.5c-9.3,8.9-20.5,15.2-24.4,27.7c-22.3-17.2-36.5-26.7-41-27.7c-3.7-0.9-7.8,7.1-17.6,6.6
		c13.2-13.4,19.4-21.8,36.1-31.8c0.9,0.6,7.4,5.4,8.9,6.2C352.3,1249.6,369.3,1259.9,388.3,1267.5L388.3,1267.5z M657.2,1462.1
		c10.4,7.8,16.5,14.5,29.4,16.2c-13.2,24.8-20.3,40.4-20.5,45c-0.2,3.8,6.3,22.1,7.4,31.8c-15.3-10.8-20.8-35.5-33.4-50.4
		c0.5-1.1,3.4-1.8,3.9-2.8C645,1499.9,652.9,1482.1,657.2,1462.1L657.2,1462.1z"/>
	<path class="st7" d="M649.2,1506.1c7.8,19.4,11.1,14.4,17.9,19.3c7.6,5.4,20.3,58.5,13.4,57.6s-60.6-63.7-60.9-66
		c-0.2-0.8,0.2-4.4,4.7-7.5c4-2.8,9.4-5.6,13.5-8.2C641.8,1498.8,647.5,1501.8,649.2,1506.1L649.2,1506.1z M343,1248.6
		c-17.8,11-12.2,13.5-15.8,21c-4,8.4-54,30.4-54.3,23.5c-0.4-6.9,51.8-71,54-71.7c0.8-0.3,4.3-0.6,8.2,3.3
		c3.5,3.4,7.2,8.3,10.5,11.8C348.9,1240,346.9,1246.1,343,1248.6L343,1248.6z"/>
	<path class="st8" d="M560.3,1158l-74.5,140.9l-106.9-38.5l-17.4,38.5c0,0,133.6,74.4,150.8,73.2c18.4-1.3,124.3-144,124.3-144
		L560.3,1158z"/>
	<path class="st3" d="M575.7,1107.5l72.1,23c0,0,108.5,161.8,107.7,175.7c-2.1,36.5-72.7,189.9-72.7,189.9l-30.5-25.8l36.7-150.9
		c0,0-44.7-39.1-89.9-80.8c-46.5-42.8-65-67.4-53.9-96.9C556.3,1112.1,575.7,1107.5,575.7,1107.5L575.7,1107.5z"/>
	<path class="st6" d="M657.6,922.8l-6,43.2c0,0,23.4,15.3,55.1,29c37.7,16.3,85.1,30.2,88.2,11.3c5.9-36.2-8.3-85.8-8.3-85.8
		s12.4-6.9,5.7-23.3c-6.8-16.4-16.7-13.6-16.7-13.6s-16.5,17.9-8.8,29.5c1,1.5,3.7,4.7,4.2,7.4c3.8,19-7.6,57.8-7.6,57.8l-46.8-22.5
		L657.6,922.8L657.6,922.8z"/>
	<path class="st9" d="M644.3,917.1c-1.5,1.4-1.9,3.7-1.2,5.6l27.3,69l35.7,10.9c16.6-10.4,23-44.5,23-44.5s-70.9-38.9-78.2-41.6
		C647.6,915.2,645.5,915.9,644.3,917.1L644.3,917.1z"/>
	<path class="st3" d="M481.2,771.5c-41.3-24.6-115.6-0.8-118.8,61.2c-3.1,60.8,65.8,70,64.1,69.1c1.4,0.6,7.7,7.3,12,11.5
	c17.8,17.4,46.5,21.4,70.6,12.1c29.2,23.7,80,20.7,94.3-8c26.4-2.4,47.5-23,42.7-58.3c22.7-26.7-3.9-63.4-34-77.4
	c-15.2-7.1-34.1-7.6-50.5-1.4C541.6,758.2,508.1,755,481.2,771.5L481.2,771.5z">
		<animate attributeName="d" dur="1.5s" values="
							M481.2,771.5c-41.3-24.6-115.6-0.8-118.8,61.2c-3.1,60.8,65.8,70,64.1,69.1c1.4,0.6,7.7,7.3,12,11.5
							c17.8,17.4,46.5,21.4,70.6,12.1c29.2,23.7,80,20.7,94.3-8c26.4-2.4,47.5-23,42.7-58.3c22.7-26.7-3.9-63.4-34-77.4
							c-15.2-7.1-34.1-7.6-50.5-1.4C541.6,758.2,508.1,755,481.2,771.5L481.2,771.5z;
							M462.9,781.2c-41.3-24.6-128.5-48.9-131.7,13.1c-3.1,60.8,42,63.2,40.3,62.3c1.4,0.6,72.7,43.8,77,48   c17.8,17.4,40,19.8,64.1,10.5c29.2,23.7,82.9,17,97.2-11.7c26.4-2.4,41.1-8.9,36.3-44.2c22.7-26.7-2.5-50.8-32.6-64.8   c-15.2-7.1-51-14.7-67.4-8.5c-20-22.1-38-30.7-64.9-14.2L462.9,781.2z;
							M481.2,771.5c-41.3-24.6-115.6-0.8-118.8,61.2c-3.1,60.8,65.8,70,64.1,69.1c1.4,0.6,7.7,7.3,12,11.5
							c17.8,17.4,46.5,21.4,70.6,12.1c29.2,23.7,80,20.7,94.3-8c26.4-2.4,47.5-23,42.7-58.3c22.7-26.7-3.9-63.4-34-77.4
							c-15.2-7.1-34.1-7.6-50.5-1.4C541.6,758.2,508.1,755,481.2,771.5L481.2,771.5z;" repeatCount="indefinite"></animate>
	</path>
	<path class="st10" d="M603.4,912.4l28.6-0.5c0,0,15.8,1.7,19.8,5.1c4,3.3,19.3,43.3,21.8,57.8s-15.4,78.5-16.3,93.9s0,66.2,0,66.2
		c-69.9,5.8-94.8-22.8-94.8-22.8s8.3-20.6,16.9-48.9c8.6-28.3-12.5-87.2-12.5-87.2l-7.3-61.2L603.4,912.4L603.4,912.4z"/>
	<path class="st6" d="M629.7,867c0,0,0,35.2,1.6,44.9c1.5,9.7,21.8,39,1.1,38.1c-20.7-1-29.9-26.7-28.5-36.4
		c0.7-5.5-0.1-15.6-1-23.5c-0.7-6.4-1.5-11.3-1.5-11.3L629.7,867z"/>
	<path class="st11" d="M629.5,881.9c-5.6,7.3-14.6,11.5-26.6,8.5c-0.7-6.5-1.5-11.6-1.5-11.6l28.3-11.8
		C629.7,867,629.5,873.8,629.5,881.9L629.5,881.9z"/>
	<path class="st6" d="M642,849.1c2.3,22-14.5,46.8-41.4,33.9c-27-12.9-25.8-47.7-19.6-60.2c6.2-12.5,18.2-16.7,18.2-16.7
		C631.5,798.4,639.7,827.1,642,849.1z"/>
	<path class="st6" d="M643.8,829.9c-3.3-0.9-7.1,2.9-8.6,8.5s-0.1,10.8,3.1,11.7c3.3,0.9,7.1-2.9,8.6-8.5
		C648.4,836,647,830.8,643.8,829.9z M573,846.6c-3.7,1.7-4.7,7.5-2.2,13s7.6,8.6,11.3,6.9c3.7-1.7,4.7-7.5,2.2-13
		S576.7,844.9,573,846.6z"/>
	<g>
		<path class="st4" d="M327.2,712.3l128.2,567c8.1,35.5,44.7,57.5,81.8,49.1l280.9-63.5c37.1-8.4,60.7-44,52.7-79.5l-128.2-567
		c-8.1-35.5-44.7-57.5-81.8-49.1l-280.9,63.5C342.7,641.2,319.1,676.7,327.2,712.3z M475.7,1270.5L353.8,711.9
		c-4.7-21.7,9.2-43.7,31.2-48.8l291.5-68.4c22.1-5.2,43.8,8.3,48.5,30.1l121.8,558.6c4.7,21.7-9.2,43.7-31.2,48.8l-291.5,68.4
		C502.1,1305.9,480.4,1292.3,475.7,1270.5L475.7,1270.5z">
			<animate attributeName="d" dur="4s" values="
			M327.2,712.3l128.2,567c8.1,35.5,44.7,57.5,81.8,49.1l280.9-63.5c37.1-8.4,60.7-44,52.7-79.5l-128.2-567
			c-8.1-35.5-44.7-57.5-81.8-49.1l-280.9,63.5C342.7,641.2,319.1,676.7,327.2,712.3z M475.7,1270.5L353.8,711.9
			c-4.7-21.7,9.2-43.7,31.2-48.8l291.5-68.4c22.1-5.2,43.8,8.3,48.5,30.1l121.8,558.6c4.7,21.7-9.2,43.7-31.2,48.8l-291.5,68.4
			C502.1,1305.9,480.4,1292.3,475.7,1270.5L475.7,1270.5z;
			M359,680.1l56,578.6c3.6,36.2,37.1,62.7,75,59l286.6-27.8c37.9-3.7,65.7-36,62.3-72.3l-56-578.6    c-3.6-36.2-37.1-62.7-75-59l-286.6,27.8C383.3,611.5,355.5,643.7,359,680.1z M436.3,1252.5L385.5,683    c-1.9-22.1,14.6-42.2,37.1-44.5l297.8-31.3c22.6-2.4,42.4,13.7,44.3,35.9l50.8,569.5c1.9,22.1-14.6,42.2-37.1,44.5l-297.8,31.3    C458.1,1290.9,438.2,1274.7,436.3,1252.5L436.3,1252.5z;
							M327.2,712.3l128.2,567c8.1,35.5,44.7,57.5,81.8,49.1l280.9-63.5c37.1-8.4,60.7-44,52.7-79.5l-128.2-567
			c-8.1-35.5-44.7-57.5-81.8-49.1l-280.9,63.5C342.7,641.2,319.1,676.7,327.2,712.3z M475.7,1270.5L353.8,711.9
			c-4.7-21.7,9.2-43.7,31.2-48.8l291.5-68.4c22.1-5.2,43.8,8.3,48.5,30.1l121.8,558.6c4.7,21.7-9.2,43.7-31.2,48.8l-291.5,68.4
			C502.1,1305.9,480.4,1292.3,475.7,1270.5L475.7,1270.5z;" repeatCount="indefinite"></animate>
		</path>
	</g>
	<path class="st6" d="M561.4,930.7l-13.9,37.4c0,0-73.1-16.2-106.2-23.5c-33.2-7.2-79.7-42.4-93.9-50.7c-14.2-8.3-22.5-5.2-32.1-7.6   c-9.7-2.5-23.6,5.7-24.9,2.4s17.4-6.6,18.4-10s-23.5-2.8-24.3-5.7c-1.6-5.4,26.8-2.1,26.3-4.6c-0.5-2.6-29.5-7.2-26.3-11.7   s29.4,7.6,30.2,4.6c0.9-3-25.6-9.3-25-15.8c0.2-3.5,43.3,15.8,48.3,13.7c5.1-2.1-5.1-18-1.1-20.6c4-2.5,14.2,34.2,16.9,35.3   s74.1,26.8,94.7,30.6S561.4,930.7,561.4,930.7L561.4,930.7z">
		<animate attributeName="d" dur="3s" values="
		M561.4,930.7l-13.9,37.4c0,0-73.1-16.2-106.2-23.5c-33.2-7.2-79.7-42.4-93.9-50.7c-14.2-8.3-22.5-5.2-32.1-7.6   c-9.7-2.5-6.2-0.9-7.5-4.2s0,0,1-3.4s-0.9-2.5-1.7-5.4c-1.6-5.4,4.2-2.4,3.7-4.9c-0.5-2.6-32.7-5.4-29.5-9.9s32.6,5.8,33.4,2.8   c0.9-3-23.4-16-22.8-22.5c0.2-3.5,37.1,19.8,42.1,17.8c5.1-2.1,6.2-0.4,10.2-3c4-2.5,6.9,19.2,9.6,20.3s74.1,26.8,94.7,30.6   S561.4,930.7,561.4,930.7L561.4,930.7z;

		M561.4,930.7L544.7,965c0,0-78.7-4.1-111.8-11.4c-33.2-7.2-41.5-2.7-55.7-11c-14.2-8.3-61.9-23.3-71.5-25.7   c-9.7-2.5-25.7,5.9-27,2.6s20.3-5.6,21.3-9s-25.1,4.3-25.9,1.4c-1.6-5.4,26.8-6.3,26.3-8.8c-0.5-2.6-33.3-0.2-30.1-4.7   s31.6-1.7,32.4-4.7c0.9-3-27.1-9-26.5-15.5c0.2-3.5,33.5,13.6,38.5,11.5c5.1-2.1-2.8-13,1.2-15.6c4-2.5,9.9,27.9,12.6,29   s83.1,12.6,103.7,16.4S561.4,930.7,561.4,930.7L561.4,930.7z;

		M561.4,930.7l-13.9,37.4c0,0-73.1-16.2-106.2-23.5c-33.2-7.2-79.7-42.4-93.9-50.7c-14.2-8.3-22.5-5.2-32.1-7.6   c-9.7-2.5-6.2-0.9-7.5-4.2s0,0,1-3.4s-0.9-2.5-1.7-5.4c-1.6-5.4,4.2-2.4,3.7-4.9c-0.5-2.6-32.7-5.4-29.5-9.9s32.6,5.8,33.4,2.8   c0.9-3-23.4-16-22.8-22.5c0.2-3.5,37.1,19.8,42.1,17.8c5.1-2.1,6.2-0.4,10.2-3c4-2.5,6.9,19.2,9.6,20.3s74.1,26.8,94.7,30.6   S561.4,930.7,561.4,930.7L561.4,930.7z;" repeatCount="indefinite"></animate>
	</path>
	<path class="st10" d="M583.8,916.5l-8.9,63.3c1.5-4.6-63.7-13.9-63.7-13.9c-7-10.4,1.4-50.9,1.4-50.9s15.8-0.8,32.5-0.3
		c4.5,0.2,10.4,0.1,14.6,0.1C571.1,914.8,580.7,915,583.8,916.5L583.8,916.5z"/>
	<path class="st12" d="M810,916.7c0,0,5.3-17-2.8-23c-8.2-6.1-14.3-4.4-13.2-0.3c0.2,0.7,11.3,6.4,11.3,6.4s-3.5-1.4-9.1-2.3
		c-5.6-0.9-5.8,5.7-0.5,6.2c5.2,0.5,8.7,5.9,8.7,5.9L810,916.7L810,916.7z"/>
	<path class="st12" d="M789.6,891c2.3,4.6-5.5,2.1-7.1,1.6c-5.6-1.8-5.3,5.1-7.3,5.8s-2.9-9-0.8-13.5
		C776.5,880.5,789.6,891,789.6,891L789.6,891z"/>
	<g>
		<path class="st10" d="M501.5,493.7l-9-42.4c-5.7-26.5,11.2-52.6,37.7-58.2l471.2-100.5c26.5-5.7,52.6,11.2,58.2,37.7l9,42.4
			c5.7,26.5-11.2,52.6-37.7,58.2L559.8,531.4C533.3,537,507.3,520.2,501.5,493.7z"/>
		<path class="st10" d="M586.5,511.9l13.9,43.9l43.4-59.3L586.5,511.9z"/>
	</g>
	<g>
		<path class="st10" d="M1078.1,904.9l-43.2-71c-4.4-7.2-2.1-16.6,5.1-21l71-43.2c7.2-4.4,16.6-2.1,21,5.1l43.2,71
			c4.4,7.2,2.1,16.6-5.1,21l-71,43.2C1091.9,914.4,1082.5,912.1,1078.1,904.9z"/>
	</g>
	<path class="st3" d="M1060.2,580.8c13.7,6.3,17.8,22.1,11.6,35.4c-7.1,15.4-28.4,27.7-69,28.1c-25.9-31.3-30.3-55.5-23.1-70.9
		c6.2-13.4,20.9-20.4,34.5-14.1c15.3,7.1,17.9,21.8,17.9,21.8S1045.1,573.5,1060.2,580.8z"/>
	<path class="st13" d="M1342,599.2l-90.3,43c-10.6,5.1-23.4,0.6-28.5-10.1l-24.2-50.8c-5.1-10.6-0.6-23.4,10.1-28.5l90.3-43
		c10.6-5.1,23.4-0.6,28.5,10.1l24.2,50.8C1357.2,581.4,1352.6,594.1,1342,599.2L1342,599.2z"/>
	<path class="st13" d="M1214.9,604.4l-19.3,57.6l42.9-31.8L1214.9,604.4z"/>
	<g>
		<path class="st14" d="M1246.7,582.1l11.4-5.8c0,0,9.2-17.9,7.8-21.9s-7.7-11-6-13.1c1.8-2.1,6.1-5.2,11.6-1.6
			c4,2.6,8.7,16.9,10.5,17.2c1.1,0.2,7.8-3,12.6-5.4c3.2-1.6,6.9-1.2,9.8,0.9c1.9,1.4,2.6,4,1.6,6.2l-1.5,3.4l3.3,1.7
			c2.5,1.3,3.5,4.3,2.2,6.8l-1.3,2.5l2.2,0.9c2.8,1.2,3.9,4.5,2.5,7.1l-1.2,2.1l0.5,0.4c2.1,1.5,2.7,4.4,1.4,6.7l-1.2,2.1
			l-30.4,15.4c-2.8,1.4-6,2.3-9.2,2.5l-11.6,3.7c-1.2,0.4-2.6-0.2-3.2-1.4l-13.1-26.8C1244.9,584.3,1245.5,582.7,1246.7,582.1
			L1246.7,582.1z"/>
	</g>
	<g>
		<path class="st15" d="M873.3,639.1c68.2,15.5,115.8,62,106.3,104C970,785,907,806.4,838.8,790.9c-20.4-4.7-39-12.1-54.8-21.4
			l-69.2,34.8l41.7-55.5c-19.2-18.8-28.8-40.9-24-61.9C742.1,645,805.1,623.6,873.3,639.1L873.3,639.1z"/>
		<text font-size="32" x="0" y="0" fill="white">
			<textPath xlink:href="#rotate">
				😏EMOJIALL😍PRESENT💖FOR YOU
				<animate attributeName="startOffset" from="0%" to ="100%" begin="0s" dur="9s" repeatCount="indefinite"/>
      			<animate attributeName="fill" values="transparent;white;white;white;white" dur="9s" repeatCount="indefinite" />	
			</textPath>
			
			</text>
		<path class="st4" d="M849.9,665.9c24.4-1,44.9,17.9,45.9,42.3s-17.9,44.9-42.3,45.9s-44.9-17.9-45.9-42.3
			C806.6,687.5,825.6,666.9,849.9,665.9z"/>
		<path class="st14" d="M828.5,718c0.5,13,11.5,23.1,24.5,22.6s23.1-11.5,22.6-24.5L828.5,718z"/>
	</g>
	<path class="st3" d="M934,1243.7l20.4,4.1l-2.8,20.9l22.9,5.6l-0.2,19.5l21.2,9l3.4-8l-15.8-6.7l0.1-20.6l-21.9-5.4l2.8-21.2   l-22.6-4.5L934,1243.7z M238.8,1016.9l5.7-20.1l20.6,4.5l7.4-22.4l19.5,1.7l10.6-20.3l-7.7-4l-7.9,15.2l-20.6-1.8l-7.1,21.4   l-20.9-4.5l-6.3,22.1L238.8,1016.9z"/>
	<path class="st10" d="M293.2,598.8l-12.6,3.8l-8.5-19.5l-19,3.4l-8.8-13.6l-6.9,4.4l11.7,18.2l18.1-3.2l8.8,20.3l18.9-5.8
		L293.2,598.8z"/>
	<path class="st14" d="M726.6,424.7c-5.7-26.6,11.3-52.7,37.9-58.4c26.6-5.7,52.7,11.3,58.4,37.9c5.7,26.6-11.3,52.7-37.9,58.4
		S732.3,451.3,726.6,424.7z M757.6,428.2l2.1,9.6l38.5-8.2l-2.1-9.6L757.6,428.2z M798.7,396.7c-0.9-4-4.8-6.6-8.8-5.7
		s-6.6,4.8-5.7,8.8s4.8,6.6,8.8,5.7C797,404.7,799.5,400.7,798.7,396.7z M760.2,404.9c-0.9-4-4.8-6.6-8.8-5.7s-6.6,4.8-5.7,8.8
		s4.8,6.6,8.8,5.7C758.5,412.9,761.1,408.9,760.2,404.9z M564.1,458.4c-5.7-26.6,11.3-52.7,37.9-58.4c26.6-5.7,52.7,11.3,58.4,37.9
		s-11.3,52.7-37.9,58.4S569.7,485,564.1,458.4z M594,457.2c2.3,10.6,12.8,17.4,23.4,15.1s17.4-12.8,15.1-23.4
		C632.5,448.9,594,457.1,594,457.2z M636.1,430.4c-0.9-4-4.8-6.6-8.8-5.7s-6.6,4.8-5.7,8.8s4.8,6.6,8.8,5.7
		C634.4,438.4,637,434.4,636.1,430.4z M597.6,438.6c-0.9-4-4.8-6.6-8.8-5.7s-6.6,4.8-5.7,8.8c0.9,4,4.8,6.6,8.8,5.7
		C595.9,446.6,598.5,442.7,597.6,438.6z M947.6,426.4c-26.6,5.6-52.7-11.3-58.4-37.9s11.3-52.7,37.9-58.4
		c26.6-5.7,52.7,11.3,58.4,37.9C991.2,394.6,974.2,420.7,947.6,426.4L947.6,426.4z M966.5,397.2c-2.8-13.3-15.9-21.8-29.2-18.9
		c-13.3,2.8-21.7,15.9-18.9,29.2l9.6-2.1c-1.7-8,3.4-15.8,11.4-17.5c7.9-1.7,15.8,3.4,17.5,11.4L966.5,397.2L966.5,397.2z
		 M961.3,360.5c-0.9-4-4.8-6.6-8.8-5.7s-6.6,4.8-5.7,8.8c0.9,4,4.8,6.6,8.8,5.7C959.6,368.4,962.1,364.5,961.3,360.5z M922.7,368.7
		c-0.9-4-4.8-6.6-8.8-5.7c-4,0.9-6.6,4.8-5.7,8.8c0.9,4,4.8,6.6,8.8,5.7C921,376.7,923.6,372.7,922.7,368.7z M1119,800.5
		c0,0-13,47.7-13.1,47.7l-39.2-5.5l23.4,35.5l55.9-36.8l2,3.1c1.1,1.6,0.6,3.9-1.1,5l-55.9,36.8c-1.7,1.1-4,0.7-5.1-1l-32-48.6
		c-1.1-1.6-0.6-3.9,1.1-5l55.9-36.8c1.7-1.1,4-0.7,5.1,1L1119,800.5L1119,800.5z M1138.2,816.1l-15.5,10.2l-4-6.1l15.5-10.2
		L1138.2,816.1z M1148.2,831.3l-24.8,16.3l-4-6.1l24.8-16.3L1148.2,831.3z"/>
</g>
<path id="rotate" class="st16" fill="none" stroke="none" stroke-miterlimit="10" d="M1202.3,424.3c71.2,94.8,52.1,229.4-42.7,300.6c-75.8,57-183.5,41.7-240.5-34.2  c-45.6-60.7-33.3-146.8,27.3-192.4c48.5-36.5,117.4-26.7,153.9,21.9c29.2,38.8,21.3,93.9-17.5,123.1c-31.1,23.3-75.2,17.1-98.5-14  c-18.7-24.9-13.6-60.1,11.2-78.8c19.9-14.9,48.1-10.9,63,9c11.9,15.9,8.7,38.5-7.2,50.4c-12.7,9.6-30.8,7-40.3-5.7"/>

</svg>
